<?xml version="1.0" encoding="UTF-8"?>
<svg width="20px" height="20px" viewBox="0 0 20 20" version="1.1" xmlns="http://www.w3.org/2000/svg" xmlns:xlink="http://www.w3.org/1999/xlink">
    <title>13E6EE29-2E7F-4BDF-B273-128F8F980452</title>
    <g id="Homepage" stroke="none" stroke-width="1" fill="none" fill-rule="evenodd">
        <g transform="translate(-1041.000000, -3754.000000)" fill="#FFFFFF" fill-rule="nonzero" id="icons8-facebook">
            <g transform="translate(1041.000000, 3754.000000)">
                <path d="M16.25,0 L3.75,0 C1.67968769,0 0,1.67968769 0,3.75 L0,16.25 C0,18.3203123 1.67968769,20 3.75,20 L16.25,20 C18.3203123,20 20,18.3203123 20,16.25 L20,3.75 C20,1.67968769 18.3203123,0 16.25,0 Z M15.7421877,10.7722354 L13.8701923,10.7722354 L13.8701923,17.6983177 L10.7451923,17.6983177 L10.7451923,10.7722354 L9.53125,10.7722354 L9.53125,8.4375 L10.7451923,8.4375 L10.7451923,6.95012 C10.7451923,5.00300462 11.5534854,3.84615385 13.8521638,3.84615385 L16.1778846,3.84615385 L16.1778846,6.17187538 L14.8257215,6.17187538 C13.9332931,6.17187538 13.8731969,6.50240385 13.8731969,7.12740385 L13.8701923,8.4375 L15.9975962,8.4375 L15.7421877,10.7722354 Z" id="Shape"></path>
            </g>
        </g>
    </g>
</svg>