<?xml version="1.0" encoding="UTF-8"?>
<svg width="20px" height="15px" viewBox="0 0 20 15" version="1.1" xmlns="http://www.w3.org/2000/svg" xmlns:xlink="http://www.w3.org/1999/xlink">
    <title>icons8-closed-eye-2</title>
    <g id="symbol" stroke="none" stroke-width="1" fill="none" fill-rule="evenodd" opacity="0.5">
        <g id="Register-step-1" transform="translate(-663.000000, -512.000000)" fill="#000000" fill-rule="nonzero">
            <g id="icons8-closed-eye-2" transform="translate(663.000000, 512.000000)">
                <path d="M9.70382898,0 C7.48638473,0 5.42375473,0.675897265 3.74159149,1.81966802 C3.49468766,1.98754102 3.3641498,2.26354914 3.3991604,2.54370133 C3.43417099,2.82385352 3.62940979,3.06557753 3.91131706,3.17779948 C4.19322432,3.29002143 4.51896109,3.25568793 4.76580016,3.08773476 C6.16982938,2.13307851 7.86538017,1.57776467 9.70382898,1.57776467 C11.5422781,1.57776467 13.2387427,2.13234493 14.6418581,3.086194 C14.8886986,3.25412101 15.2144186,3.28843711 15.4963081,3.17621426 C15.7781977,3.06399141 15.9734253,2.82228129 16.0084419,2.54214436 C16.0434585,2.26200743 15.9129436,1.98600906 15.6660666,1.81812725 C13.9847089,0.675127079 11.9212729,0 9.70382898,0 Z M18.4062444,5.23404937 C18.0919167,5.24080387 17.8066762,5.40447457 17.6624342,5.66084687 C17.1739114,6.49928758 16.5564047,7.23566743 15.8574758,7.87495637 C15.7921154,7.91908072 15.733891,7.97147374 15.6845356,8.03057603 C14.8898083,8.72169849 13.9859588,9.26955124 12.9997656,9.64840093 C12.9116915,9.6664659 12.8272662,9.69714354 12.7495906,9.739307 C11.8592206,10.0509321 10.9159005,10.2411024 9.92881928,10.252389 C9.88987993,10.2473574 9.85061028,10.2447832 9.81128693,10.2446847 C9.77816429,10.2449863 9.74508832,10.2470443 9.71222445,10.2508483 C6.4594278,10.2094517 3.60164933,8.41537311 1.99875782,5.677796 C1.85329191,5.42953413 1.5745462,5.27134614 1.2675215,5.26281992 C0.960496801,5.2542937 0.671837473,5.39672459 0.510278693,5.63646024 C0.348719913,5.87619589 0.338806304,6.17681476 0.484272226,6.42507663 C0.910410415,7.15287817 1.41986282,7.82559127 1.99707873,8.43426132 L0.264319246,10.0243523 C0.039749795,10.222219 -0.0507092731,10.5160342 0.0278281299,10.7924862 C0.106365533,11.0689383 0.34162744,11.2848297 0.64288367,11.3569007 C0.944139901,11.4289718 1.26431726,11.3459608 1.4799374,11.1398816 L3.22109206,9.54208642 C3.82170354,10.0101303 4.46949095,10.4206844 5.16037236,10.756226 L3.98001387,12.8809694 C3.83016938,13.1330205 3.84136907,13.439875 4.00925603,13.6821604 C4.17714299,13.9244459 4.47520932,14.0639075 4.78750132,14.0462919 C5.09979332,14.0286763 5.37700278,13.8567649 5.51128972,13.5974347 L6.7453772,11.3756217 C7.45739481,11.590208 8.19949068,11.7348204 8.96505554,11.7962562 L8.96505554,14.199882 C8.960671,14.4843813 9.12355627,14.7490083 9.39133939,14.8924321 C9.65912251,15.035856 9.99031584,15.035856 10.258099,14.8924321 C10.5258821,14.7490083 10.6887673,14.4843813 10.6843828,14.199882 L10.6843828,11.7947155 C11.4044242,11.7371744 12.1032508,11.6057987 12.7764551,11.4126006 L13.9887149,13.5974347 C14.2043128,13.9858945 14.7222531,14.1404171 15.1455669,13.9425707 C15.5688806,13.7447243 15.7372676,13.2694292 15.5216697,12.8809694 L14.3732132,10.8116939 C15.0768135,10.4811901 15.7308723,10.0684768 16.3427155,9.60063648 L18.0200672,11.1398816 C18.2356879,11.3459582 18.5558639,11.4289672 18.8571184,11.3568959 C19.1583729,11.2848245 19.3936334,11.0689344 19.4721713,10.792484 C19.5507091,10.5160336 19.4602523,10.2222197 19.2356857,10.0243523 L17.5851986,8.50821904 C18.1964409,7.87456587 18.7346385,7.16988805 19.1802769,6.4050469 C19.329692,6.15751775 19.3232095,5.85551555 19.1632881,5.61357791 C19.0033666,5.37164028 18.7145002,5.22682291 18.4062444,5.23404937 Z" id="Shape"></path>
            </g>
        </g>
    </g>
</svg>