<?xml version="1.0" encoding="UTF-8"?>
<svg width="20px" height="15px" viewBox="0 0 20 15" version="1.1" xmlns="http://www.w3.org/2000/svg" xmlns:xlink="http://www.w3.org/1999/xlink">
    <title>icons8-eye-3</title>
    <g id="symbol" stroke="none" stroke-width="1" fill="none" fill-rule="evenodd" opacity="0.5">
        <g id="Register-step-1" transform="translate(-663.000000, -439.000000)" fill="#000000" fill-rule="nonzero">
            <g id="icons8-eye-3" transform="translate(663.000000, 439.000000)">
                <path d="M9.74412059,7.54951657e-15 C5.14564009,7.54951657e-15 1.09387291,4.20317036 0.0189638646,9.71086768 C-0.0647329557,10.1407992 0.131711327,10.5788019 0.457734453,10.6891741 C0.783757579,10.7995463 1.11590123,10.5404924 1.19959806,10.1105609 C1.88050256,6.6216924 4.00003134,3.6669439 6.67612298,2.34649003 C7.64029294,1.87074326 8.67670985,1.60714286 9.74412059,1.60714286 C13.7741718,1.60714286 17.3737815,5.36600893 18.2997513,10.1105609 C18.3834482,10.5404924 18.7155918,10.7995463 19.0416149,10.6891741 C19.367638,10.5788018 19.5640823,10.1407992 19.4803855,9.71086768 C18.4052185,4.20184821 14.3426011,7.54951657e-15 9.74412059,7.54951657e-15 Z M9.85818911,4.28571429 C7.00815268,4.28571429 4.68101304,6.61285661 4.68101304,9.46289036 C4.68101304,12.3129252 7.00815268,14.6411132 9.85818911,14.6411132 C12.7082255,14.6411132 15.036412,12.3129246 15.036412,9.46289036 C15.036412,6.61285661 12.7082255,4.28571429 9.85818911,4.28571429 Z M9.85818911,5.89285714 C11.8396618,5.89285714 13.4292691,7.48141982 13.4292691,9.46289036 C13.4292691,11.4443625 11.8396618,13.0339704 9.85818911,13.0339704 C7.87671696,13.0339704 6.28815589,11.444362 6.28815589,9.46289036 C6.28815589,7.48141982 7.87671696,5.89285714 9.85818911,5.89285714 Z" id="Shape"></path>
            </g>
        </g>
    </g>
</svg>